<?xml version="1.0" encoding="UTF-8"?><svg id="Short" xmlns="http://www.w3.org/2000/svg" viewBox="0 0 792 475.67"><defs><style>.cls-1{fill:#fdb714;}.cls-1,.cls-2{stroke-width:0px;}.cls-2{fill:#172a47;}</style></defs><path class="cls-2" d="M284.07,218.69c0-12.84,6.42-19.27,19.27-19.27h22.77c12.84,0,19.27,6.43,19.27,19.27v178.68h83.03c12.84,0,19.27,6.43,19.27,19.27v14.01c0,12.85-6.43,19.27-19.27,19.27h-125.08c-12.85,0-19.27-6.42-19.27-19.27v-211.96Z"/><path class="cls-2" d="M472.9,218.69c0-12.84,6.42-19.27,19.27-19.27h22.77c12.84,0,19.27,6.43,19.27,19.27v211.96c0,12.85-6.43,19.27-19.27,19.27h-22.77c-12.85,0-19.27-6.42-19.27-19.27v-211.96Z"/><path class="cls-2" d="M636.51,251.98h-56.76c-12.85,0-19.27-6.42-19.27-19.27v-14.01c0-12.84,6.42-19.27,19.27-19.27h174.83c12.84,0,19.27,6.43,19.27,19.27v14.01c0,12.85-6.43,19.27-19.27,19.27h-56.76v178.68c0,12.85-6.43,19.27-19.27,19.27h-22.77c-12.85,0-19.27-6.42-19.27-19.27v-178.68Z"/><path class="cls-1" d="M112.07,66.68c0-2.18,2.41-3.49,4.24-2.31l6.93,4.46c1.81,1.17,2.9,3.17,2.9,5.32v48.08c0,1.42-1.57,2.27-2.76,1.51l-5.94-3.82c-3.35-2.16-5.38-5.88-5.38-9.86v-43.37Z"/><path class="cls-1" d="M118.62,137.41l30.54,19.67c3.21,2.07,5.15,5.63,5.15,9.45v44.92c0,5.24-4.25,9.49-9.49,9.49h-23.26c-5.24,0-9.49-4.25-9.49-9.49v-70.47c0-3.36,3.72-5.39,6.54-3.57Z"/><path class="cls-1" d="M55.76,61.59c0-3.89,1.98-7.52,5.25-9.63l31.39-20.22c2.41-1.55,5.59.18,5.59,3.05v44.01c0,3.38-1.72,6.52-4.55,8.35l-16.22,10.45c-4.56,2.94-7.32,7.99-7.32,13.42v102.85c0,3.9-3.17,7.07-7.07,7.07h0c-3.9,0-7.07-3.17-7.07-7.07V61.59Z"/><path class="cls-2" d="M213.04,220.93h-9.46c-3.89,0-7.04-3.15-7.04-7.04v-34.54c0-5.3-2.69-10.23-7.15-13.1l-14.44-9.3c-4.09-2.64-6.57-7.17-6.57-12.04V55.77c0-5.05-2.57-9.76-6.81-12.49L110.41,10.32c-3.27-2.11-7.47-2.11-10.75,0l-50.8,32.72c-4.48,2.88-7.18,7.84-7.18,13.17v157.69c0,3.89-3.15,7.04-7.04,7.04h-9.46c-3.89,0-7.04,3.15-7.04,7.04h0c0,16.14,8.61,30.3,21.48,38.13,1.25.76,2.06,2.05,2.19,3.51,1.34,14.74,9.88,27.44,22.07,34.53,2.12,1.23,3.6,3.33,3.98,5.76l19.05,122.47c1.57,10.1,10.27,17.56,20.5,17.56h23.39c10.23,0,18.93-7.45,20.5-17.56l19.05-122.47c.38-2.43,1.86-4.53,3.98-5.76,12.19-7.09,20.73-19.78,22.07-34.53.13-1.45.93-2.74,2.18-3.5,12.89-7.84,21.51-22.03,21.49-38.19,0-3.87-3.17-6.99-7.04-6.99ZM168.39,176.33c0-2.96,3.28-4.75,5.77-3.15l4.03,2.59c2.67,1.72,4.28,4.68,4.28,7.85v30.26c0,3.87-3.17,7.04-7.04,7.04h-.03c-3.87,0-7.01-3.14-7.01-7.01v-37.59ZM83.98,213.96v-96.1c0-4.91,2.49-9.48,6.62-12.13l2.91-1.87c1.94-1.25,4.49.14,4.49,2.45v107.63c0,3.85-3.15,7.01-7.01,7.01h-.04c-3.85,0-6.97-3.12-6.97-6.97ZM112.07,32.87c0-2.04,2.26-3.27,3.98-2.17l34.57,22.27c2.3,1.48,3.68,4.02,3.68,6.76v80.84c0,1.34-1.48,2.14-2.6,1.42l-5.84-3.76c-3.51-2.26-5.63-6.15-5.63-10.33v-56.44c0-5.25-2.67-10.15-7.08-12.99l-17.48-11.26c-2.24-1.44-3.59-3.92-3.59-6.58v-7.75ZM112.07,66.68c0-2.18,2.41-3.49,4.24-2.31l6.93,4.46c1.81,1.17,2.9,3.17,2.9,5.32v48.08c0,1.42-1.57,2.27-2.76,1.51l-5.94-3.82c-3.35-2.16-5.38-5.88-5.38-9.86v-43.37ZM112.07,140.98c0-3.36,3.72-5.39,6.54-3.57l30.54,19.67c3.21,2.07,5.15,5.63,5.15,9.45v44.92c0,5.23-4.23,9.47-9.46,9.49h-23.32c-5.22-.02-9.45-4.26-9.45-9.49v-70.47ZM55.76,213.9V61.59c0-3.89,1.98-7.52,5.25-9.63l31.39-20.22c2.41-1.55,5.59.18,5.59,3.05v44.01c0,3.38-1.72,6.52-4.55,8.35l-16.22,10.45c-4.56,2.94-7.32,7.99-7.32,13.42v102.85c0,3.89-3.18,7.07-7.07,7.07h-.04c-3.88,0-7.03-3.15-7.03-7.03ZM154.7,318.89l-16.92,108.77c-.68,4.39-4.26,7.88-8.7,8.16-5.45.34-9.97-3.98-9.97-9.35v-94.86c0-11.85,9.6-21.45,21.45-21.45,0,0,3.11-.01,6.56-.04,4.69-.04,8.3,4.14,7.58,8.78ZM179.44,278.85c-4.95,10.18-15.4,17.22-27.46,17.22h-65.75c-12.06,0-22.51-7.04-27.46-17.22-1.41-2.9.76-6.26,3.98-6.26h112.71s0,0,0,0c3.22,0,5.39,3.37,3.98,6.26ZM202.47,242.19c-5.12,9.69-15.31,16.31-27.01,16.31H62.76c-11.7,0-21.89-6.62-27.01-16.31-1.72-3.25.69-7.17,4.37-7.17h157.98c3.68,0,6.09,3.92,4.37,7.17Z"/></svg>