<?xml version="1.0" encoding="UTF-8"?><svg id="Long" xmlns="http://www.w3.org/2000/svg" viewBox="0 0 792 321.38"><defs><style>.cls-1{fill:none;stroke:#fdb714;stroke-linecap:square;stroke-miterlimit:10;stroke-width:9.85px;}.cls-2{fill:#fdb714;}.cls-2,.cls-3{stroke-width:0px;}.cls-3{fill:#172a47;}</style></defs><path class="cls-3" d="M142.21,148.81c0-4.52,2.26-6.78,6.78-6.78h8.01c4.52,0,6.78,2.26,6.78,6.78v62.86h29.21c4.52,0,6.78,2.26,6.78,6.78v4.93c0,4.52-2.26,6.78-6.78,6.78h-44c-4.52,0-6.78-2.26-6.78-6.78v-74.56Z"/><path class="cls-3" d="M208.64,148.81c0-4.52,2.26-6.78,6.78-6.78h8.01c4.52,0,6.78,2.26,6.78,6.78v74.56c0,4.52-2.26,6.78-6.78,6.78h-8.01c-4.52,0-6.78-2.26-6.78-6.78v-74.56Z"/><path class="cls-3" d="M266.2,160.52h-19.97c-4.52,0-6.78-2.26-6.78-6.78v-4.93c0-4.52,2.26-6.78,6.78-6.78h61.5c4.52,0,6.78,2.26,6.78,6.78v4.93c0,4.52-2.26,6.78-6.78,6.78h-19.96v62.86c0,4.52-2.26,6.78-6.78,6.78h-8.01c-4.52,0-6.78-2.26-6.78-6.78v-62.86Z"/><path class="cls-2" d="M62.25,49.97c0-1.07,1.18-1.71,2.08-1.14l3.4,2.19c.89.57,1.42,1.56,1.42,2.61v23.58c0,.7-.77,1.11-1.35.74l-2.91-1.88c-1.64-1.06-2.64-2.88-2.64-4.84v-21.27Z"/><path class="cls-2" d="M65.46,84.66l14.98,9.65c1.57,1.01,2.53,2.76,2.53,4.63v22.03c0,2.57-2.08,4.65-4.65,4.65h-11.41c-2.57,0-4.65-2.08-4.65-4.65v-34.56c0-1.65,1.82-2.64,3.21-1.75Z"/><path class="cls-2" d="M34.64,47.47c0-1.91.97-3.69,2.58-4.72l15.39-9.92c1.18-.76,2.74.09,2.74,1.5v21.58c0,1.66-.84,3.2-2.23,4.1l-7.96,5.12c-2.24,1.44-3.59,3.92-3.59,6.58v50.44c0,1.91-1.55,3.47-3.47,3.47h0c-1.91,0-3.47-1.55-3.47-3.47V47.47Z"/><path class="cls-3" d="M111.76,125.62h-4.64c-1.91,0-3.45-1.55-3.45-3.45v-16.94c0-2.6-1.32-5.02-3.5-6.43l-7.08-4.56c-2.01-1.29-3.22-3.52-3.22-5.9v-43.72c0-2.48-1.26-4.79-3.34-6.13l-25.09-16.16c-1.6-1.03-3.67-1.03-5.27,0l-24.91,16.05c-2.19,1.41-3.52,3.85-3.52,6.46v77.33c0,1.91-1.55,3.45-3.45,3.45h-4.64c-1.91,0-3.45,1.55-3.45,3.45h0c0,7.91,4.22,14.86,10.53,18.7.61.37,1.01,1.01,1.07,1.72.66,7.23,4.85,13.46,10.82,16.93,1.04.61,1.77,1.64,1.95,2.83l9.34,60.06c.77,4.96,5.04,8.61,10.05,8.61h11.47c5.01,0,9.28-3.65,10.05-8.61l9.34-60.06c.19-1.19.91-2.22,1.95-2.83,5.98-3.48,10.17-9.7,10.82-16.93.06-.71.46-1.34,1.07-1.72,6.32-3.85,10.55-10.8,10.54-18.73,0-1.9-1.56-3.43-3.45-3.43ZM89.87,103.74c0-1.45,1.61-2.33,2.83-1.54l1.98,1.27c1.31.84,2.1,2.29,2.1,3.85v14.84c0,1.9-1.55,3.45-3.45,3.45h-.02c-1.9,0-3.44-1.54-3.44-3.44v-18.44ZM48.47,122.2v-47.13c0-2.41,1.22-4.65,3.25-5.95l1.43-.92c.95-.61,2.2.07,2.2,1.2v52.78c0,1.89-1.55,3.44-3.44,3.44h-.02c-1.89,0-3.42-1.53-3.42-3.42ZM62.25,33.39c0-1,1.11-1.61,1.95-1.06l16.96,10.92c1.13.73,1.81,1.97,1.81,3.31v39.64c0,.65-.72,1.05-1.28.7l-2.87-1.85c-1.72-1.11-2.76-3.02-2.76-5.07v-27.68c0-2.58-1.31-4.98-3.47-6.37l-8.57-5.52c-1.1-.71-1.76-1.92-1.76-3.23v-3.8ZM62.25,49.97c0-1.07,1.18-1.71,2.08-1.14l3.4,2.19c.89.57,1.42,1.56,1.42,2.61v23.58c0,.7-.77,1.11-1.35.74l-2.91-1.88c-1.64-1.06-2.64-2.88-2.64-4.84v-21.27ZM62.25,86.41c0-1.65,1.82-2.64,3.21-1.75l14.98,9.65c1.57,1.01,2.53,2.76,2.53,4.63v22.03c0,2.56-2.07,4.64-4.64,4.65h-11.44c-2.56,0-4.64-2.09-4.64-4.65v-34.56ZM34.64,122.17V47.47c0-1.91.97-3.69,2.58-4.72l15.39-9.92c1.18-.76,2.74.09,2.74,1.5v21.58c0,1.66-.84,3.2-2.23,4.1l-7.96,5.12c-2.24,1.44-3.59,3.92-3.59,6.58v50.44c0,1.91-1.56,3.47-3.47,3.47h-.02c-1.9,0-3.45-1.54-3.45-3.45ZM83.16,173.66l-8.3,53.34c-.34,2.15-2.09,3.86-4.26,4-2.67.17-4.89-1.95-4.89-4.59v-46.52c0-5.81,4.71-10.52,10.52-10.52,0,0,1.53,0,3.22-.02,2.3-.02,4.07,2.03,3.72,4.3ZM95.29,154.02c-2.43,4.99-7.55,8.44-13.47,8.44h-32.24c-5.92,0-11.04-3.45-13.47-8.44-.69-1.42.37-3.07,1.95-3.07h55.27s0,0,0,0c1.58,0,2.64,1.65,1.95,3.07ZM106.59,136.04c-2.51,4.75-7.51,8-13.25,8h-55.27c-5.74,0-10.73-3.25-13.25-8-.84-1.6.34-3.52,2.14-3.52h77.48c1.81,0,2.99,1.92,2.14,3.52Z"/><path class="cls-3" d="M388.19,147.31c0-1.62.81-2.44,2.44-2.44h2.88c1.62,0,2.44.81,2.44,2.44v22.6h10.5c1.62,0,2.44.81,2.44,2.44v1.77c0,1.63-.81,2.44-2.44,2.44h-15.82c-1.63,0-2.44-.81-2.44-2.44v-26.82Z"/><path class="cls-3" d="M409.47,165.13c0-1.68.27-3.25.82-4.7.55-1.45,1.33-2.7,2.35-3.77,1.02-1.06,2.27-1.91,3.74-2.53,1.48-.62,3.13-.93,4.96-.93,1.68,0,3.18.28,4.5.84,1.32.56,2.42,1.33,3.32,2.3.9.98,1.58,2.13,2.04,3.46.46,1.33.69,2.76.69,4.3,0,.59-.24,1.16-.71,1.71-.47.55-1.1.82-1.86.82h-12.01c.3,1.4.95,2.43,1.95,3.07,1,.64,2.13.96,3.37.96.77,0,1.51-.1,2.22-.31s1.36-.46,1.95-.75c.74-.32,1.37-.43,1.91-.31.53.12.99.53,1.37,1.24l.62,1.16c.35.68.47,1.32.35,1.9s-.52,1.06-1.2,1.45c-.83.48-1.9.94-3.21,1.38-1.32.45-2.86.67-4.63.67-2.04,0-3.84-.34-5.41-1.02-1.57-.68-2.88-1.57-3.92-2.68-1.05-1.11-1.85-2.39-2.39-3.83-.55-1.45-.82-2.92-.82-4.43ZM424.32,162.25c0-.95-.28-1.75-.84-2.42-.56-.66-1.33-1-2.3-1-1.12,0-1.97.34-2.53,1.02-.56.68-.95,1.48-1.15,2.39h6.83Z"/><path class="cls-3" d="M437.39,180.25c.29-.77.68-1.27,1.15-1.49.47-.22,1.12-.2,1.95.07.56.18,1.16.33,1.8.44.64.12,1.4.18,2.28.18.71,0,1.39-.07,2.04-.22.65-.15,1.22-.38,1.71-.7.49-.32.88-.76,1.17-1.31.29-.56.44-1.26.44-2.11v-1.68c0-.12.01-.22.04-.31h-.09c-.62.92-1.37,1.61-2.24,2.08-.87.47-1.99.71-3.34.71-1.74,0-3.27-.32-4.59-.98-1.32-.65-2.4-1.51-3.26-2.57-.86-1.06-1.5-2.28-1.93-3.66-.43-1.37-.64-2.8-.64-4.27s.21-2.84.62-4.19c.41-1.34,1.05-2.54,1.93-3.59s1.97-1.88,3.28-2.51c1.31-.62,2.86-.93,4.63-.93,1.24,0,2.25.15,3.04.47.78.31,1.42.66,1.93,1.04.53.44.96.93,1.29,1.46h.09s-.05-.07-.05-.13v-.4c0-.53.21-.98.62-1.35.41-.37,1.02-.56,1.82-.56h2.08c1.63,0,2.44.81,2.44,2.44v18.3c0,2.1-.39,3.86-1.15,5.3s-1.76,2.61-2.97,3.52-2.56,1.57-4.05,1.97c-1.49.4-2.96.6-4.41.6-1.33,0-2.62-.11-3.88-.33-1.26-.22-2.22-.48-2.9-.78-1.45-.6-1.89-1.65-1.33-3.17l.49-1.34ZM445.99,169.47c.5,0,1-.07,1.48-.22.49-.15.93-.4,1.33-.77.4-.37.72-.87.95-1.52.24-.64.35-1.46.35-2.46s-.13-1.81-.38-2.44c-.25-.63-.58-1.13-.98-1.49-.4-.37-.87-.61-1.42-.75s-1.1-.2-1.66-.2c-1.36,0-2.38.43-3.06,1.27-.68.85-1.02,1.93-1.02,3.25,0,.7.09,1.38.27,2.02s.44,1.21.8,1.69.8.87,1.35,1.16c.55.29,1.2.44,1.97.44Z"/><path class="cls-3" d="M460.61,170.14c0-1.53.41-2.8,1.22-3.81.81-1,1.85-1.8,3.13-2.39,1.27-.59,2.66-1,4.17-1.24,1.51-.24,2.97-.35,4.39-.35h.66v-.4c0-.95-.32-1.6-.97-1.97-.65-.37-1.4-.56-2.26-.56-.74,0-1.46.1-2.17.31-.71.21-1.36.44-1.95.71-1.51.65-2.6.3-3.28-1.06l-.53-1.11c-.33-.68-.42-1.31-.27-1.88.15-.58.56-1.04,1.24-1.4.86-.41,1.93-.81,3.24-1.19,1.3-.39,2.78-.58,4.43-.58,3.16,0,5.65.82,7.47,2.46,1.82,1.64,2.73,3.92,2.73,6.85v11.61c0,1.63-.81,2.44-2.44,2.44h-2.13c-1.63,0-2.44-.83-2.44-2.48v-.49c0-.06.01-.1.04-.13h-.09c-.44.68-.99,1.29-1.64,1.82-.56.47-1.27.9-2.13,1.26-.86.37-1.85.56-2.97.56s-2.1-.18-3.01-.53c-.92-.35-1.7-.84-2.35-1.46s-1.16-1.36-1.53-2.22-.55-1.77-.55-2.75ZM468.19,169.43c0,.53.18.99.55,1.37.37.38.91.58,1.62.58.56,0,1.08-.13,1.55-.38.47-.25.89-.57,1.24-.95.35-.39.63-.81.82-1.29.19-.47.29-.95.29-1.42v-.62h-.71c-.59,0-1.2.04-1.84.13-.63.09-1.21.24-1.73.44-.52.21-.95.48-1.29.82s-.51.78-.51,1.31Z"/><path class="cls-3" d="M485.92,147.31c0-1.62.81-2.44,2.44-2.44h2.79c1.63,0,2.44.81,2.44,2.44v20.48c0,.86.13,1.43.38,1.73.25.29.56.47.91.53.53.06.96.25,1.29.58s.49.83.49,1.51v2.17c0,.77-.19,1.37-.58,1.82-.38.44-1.02.66-1.9.66-.98,0-1.96-.09-2.95-.26-.99-.18-1.88-.57-2.66-1.18-.78-.6-1.42-1.48-1.91-2.61-.49-1.14-.73-2.66-.73-4.59v-20.83Z"/><path class="cls-3" d="M511.49,147.31c0-1.62.81-2.44,2.44-2.44h2.88c1.62,0,2.44.81,2.44,2.44v26.82c0,1.63-.81,2.44-2.44,2.44h-2.88c-1.63,0-2.44-.81-2.44-2.44v-26.82Z"/><path class="cls-3" d="M524.03,156.18c0-1.62.81-2.44,2.44-2.44h2.48c1.59,0,2.39.81,2.39,2.44v.4c0,.06,0,.12-.02.18-.02.06-.02.12-.02.18v.22h.09c.27-.44.61-.9,1.02-1.37.41-.47.92-.89,1.51-1.26s1.28-.68,2.06-.93,1.68-.38,2.68-.38c1.15,0,2.23.15,3.24.44,1,.3,1.87.78,2.59,1.44.73.66,1.3,1.54,1.73,2.64s.64,2.44.64,4.03v12.37c0,1.63-.81,2.44-2.44,2.44h-2.79c-1.63,0-2.44-.81-2.44-2.44v-10.95c0-1.06-.21-1.83-.62-2.3-.42-.47-1.05-.71-1.91-.71s-1.59.16-2.22.49-1.14.77-1.55,1.33c-.41.56-.72,1.21-.91,1.95-.19.74-.29,1.51-.29,2.3v7.89c0,1.63-.81,2.44-2.44,2.44h-2.79c-1.63,0-2.44-.81-2.44-2.44v-17.95Z"/><path class="cls-3" d="M551.07,156.18c0-1.62.81-2.44,2.44-2.44h2.48c1.59,0,2.39.81,2.39,2.44v.4c0,.06,0,.12-.02.18-.02.06-.02.12-.02.18v.22h.09c.27-.44.61-.9,1.02-1.37.41-.47.92-.89,1.51-1.26s1.28-.68,2.06-.93,1.68-.38,2.68-.38c1.15,0,2.23.15,3.24.44,1,.3,1.87.78,2.59,1.44.73.66,1.3,1.54,1.73,2.64s.64,2.44.64,4.03v12.37c0,1.63-.81,2.44-2.44,2.44h-2.79c-1.63,0-2.44-.81-2.44-2.44v-10.95c0-1.06-.21-1.83-.62-2.3-.42-.47-1.05-.71-1.91-.71s-1.59.16-2.22.49-1.14.77-1.55,1.33c-.41.56-.72,1.21-.91,1.95-.19.74-.29,1.51-.29,2.3v7.89c0,1.63-.81,2.44-2.44,2.44h-2.79c-1.63,0-2.44-.81-2.44-2.44v-17.95Z"/><path class="cls-3" d="M576.82,165.22c0-1.8.34-3.44,1.02-4.92.68-1.48,1.6-2.74,2.77-3.79,1.17-1.05,2.53-1.86,4.1-2.44,1.56-.58,3.24-.86,5.01-.86s3.49.29,5.08.86c1.58.58,2.95,1.39,4.12,2.44,1.17,1.05,2.09,2.31,2.77,3.79.68,1.48,1.02,3.12,1.02,4.92s-.34,3.39-1.02,4.85c-.68,1.46-1.6,2.72-2.77,3.77-1.17,1.05-2.53,1.85-4.1,2.42-1.57.56-3.25.84-5.05.84s-3.49-.28-5.05-.84c-1.57-.56-2.93-1.37-4.1-2.42-1.17-1.05-2.09-2.3-2.77-3.77-.68-1.46-1.02-3.08-1.02-4.85ZM584.57,165.22c0,.85.14,1.61.42,2.29.28.67.66,1.24,1.13,1.71.47.47,1.02.83,1.64,1.08s1.29.37,2,.37,1.37-.12,1.99-.37,1.17-.61,1.64-1.08c.47-.47.85-1.04,1.13-1.71.28-.67.42-1.44.42-2.29s-.14-1.62-.42-2.31c-.28-.69-.66-1.28-1.13-1.76-.47-.48-1.02-.86-1.64-1.12s-1.29-.4-1.99-.4-1.37.13-2,.4-1.17.64-1.64,1.12c-.47.48-.85,1.07-1.13,1.76-.28.69-.42,1.46-.42,2.31Z"/><path class="cls-3" d="M603.94,156.53c-.3-.86-.27-1.54.09-2.04.35-.5.99-.75,1.9-.75h2.97c1.42,0,2.32.68,2.71,2.04l2.97,10.1c.12.39.22.8.31,1.24s.18.87.27,1.29c.09.47.18.95.27,1.42h.09c.06-.47.15-.95.27-1.42.06-.41.14-.84.24-1.29s.21-.86.33-1.24l2.93-10.1c.38-1.36,1.29-2.04,2.7-2.04h3.06c.89,0,1.51.25,1.88.75.37.5.41,1.18.11,2.04l-6.16,18.04c-.44,1.33-1.36,2-2.75,2h-5.19c-1.39,0-2.3-.66-2.75-2l-6.25-18.04Z"/><path class="cls-3" d="M628.01,170.14c0-1.53.41-2.8,1.22-3.81.81-1,1.85-1.8,3.13-2.39,1.27-.59,2.66-1,4.17-1.24,1.51-.24,2.97-.35,4.39-.35h.66v-.4c0-.95-.32-1.6-.97-1.97-.65-.37-1.4-.56-2.26-.56-.74,0-1.46.1-2.17.31-.71.21-1.36.44-1.95.71-1.51.65-2.6.3-3.28-1.06l-.53-1.11c-.33-.68-.42-1.31-.27-1.88.15-.58.56-1.04,1.24-1.4.86-.41,1.93-.81,3.24-1.19,1.3-.39,2.78-.58,4.43-.58,3.16,0,5.65.82,7.47,2.46,1.82,1.64,2.73,3.92,2.73,6.85v11.61c0,1.63-.81,2.44-2.44,2.44h-2.13c-1.63,0-2.44-.83-2.44-2.48v-.49c0-.06.01-.1.04-.13h-.09c-.44.68-.99,1.29-1.64,1.82-.56.47-1.27.9-2.13,1.26-.86.37-1.85.56-2.97.56s-2.1-.18-3.01-.53c-.92-.35-1.7-.84-2.35-1.46s-1.16-1.36-1.53-2.22-.55-1.77-.55-2.75ZM635.58,169.43c0,.53.18.99.55,1.37.37.38.91.58,1.62.58.56,0,1.08-.13,1.55-.38.47-.25.89-.57,1.24-.95.35-.39.63-.81.82-1.29.19-.47.29-.95.29-1.42v-.62h-.71c-.59,0-1.2.04-1.84.13-.63.09-1.21.24-1.73.44-.52.21-.95.48-1.29.82s-.51.78-.51,1.31Z"/><path class="cls-3" d="M654.64,160.12h-.66c-1.59,0-2.39-.81-2.39-2.44v-1.11c0-1.63.81-2.44,2.44-2.44h.84v-4.12c0-1.63.81-2.44,2.44-2.44h2.57c1.63,0,2.44.81,2.44,2.44v4.12h2.35c1.62,0,2.44.81,2.44,2.44v1.11c0,1.63-.8,2.44-2.39,2.44h-2.39v6.91c0,.97.27,1.68.82,2.1.55.43,1.16.69,1.84.78.89.12,1.51.34,1.88.66.37.33.55.92.55,1.77v2c0,.92-.27,1.55-.8,1.91-.53.35-1.32.53-2.35.53-.86,0-1.83-.12-2.92-.35-1.1-.24-2.14-.67-3.15-1.29-1.01-.62-1.85-1.47-2.53-2.55-.68-1.08-1.02-2.46-1.02-4.15v-8.33Z"/><path class="cls-3" d="M670.77,156.18c0-1.62.81-2.44,2.44-2.44h2.79c1.63,0,2.44.81,2.44,2.44v17.95c0,1.63-.81,2.44-2.44,2.44h-2.79c-1.63,0-2.44-.81-2.44-2.44v-17.95ZM673.3,150.86c-1.63,0-2.44-.81-2.44-2.44v-1.11c0-1.62.81-2.44,2.44-2.44h2.61c1.63,0,2.44.81,2.44,2.44v1.11c0,1.63-.81,2.44-2.44,2.44h-2.61Z"/><path class="cls-3" d="M681.68,165.22c0-1.8.34-3.44,1.02-4.92.68-1.48,1.6-2.74,2.77-3.79,1.17-1.05,2.53-1.86,4.1-2.44,1.56-.58,3.24-.86,5.01-.86s3.49.29,5.08.86c1.58.58,2.95,1.39,4.12,2.44,1.17,1.05,2.09,2.31,2.77,3.79.68,1.48,1.02,3.12,1.02,4.92s-.34,3.39-1.02,4.85c-.68,1.46-1.6,2.72-2.77,3.77-1.17,1.05-2.53,1.85-4.1,2.42-1.57.56-3.25.84-5.05.84s-3.49-.28-5.05-.84c-1.57-.56-2.93-1.37-4.1-2.42-1.17-1.05-2.09-2.3-2.77-3.77-.68-1.46-1.02-3.08-1.02-4.85ZM689.43,165.22c0,.85.14,1.61.42,2.29.28.67.66,1.24,1.13,1.71.47.47,1.02.83,1.64,1.08s1.29.37,2,.37,1.37-.12,1.99-.37,1.17-.61,1.64-1.08c.47-.47.85-1.04,1.13-1.71.28-.67.42-1.44.42-2.29s-.14-1.62-.42-2.31c-.28-.69-.66-1.28-1.13-1.76-.47-.48-1.02-.86-1.64-1.12s-1.29-.4-1.99-.4-1.37.13-2,.4-1.17.64-1.64,1.12c-.47.48-.85,1.07-1.13,1.76-.28.69-.42,1.46-.42,2.31Z"/><path class="cls-3" d="M710.79,156.18c0-1.62.81-2.44,2.44-2.44h2.48c1.59,0,2.39.81,2.39,2.44v.4c0,.06,0,.12-.02.18-.02.06-.02.12-.02.18v.22h.09c.27-.44.61-.9,1.02-1.37.41-.47.92-.89,1.51-1.26s1.28-.68,2.06-.93,1.68-.38,2.68-.38c1.15,0,2.23.15,3.24.44,1,.3,1.87.78,2.59,1.44.73.66,1.3,1.54,1.73,2.64s.64,2.44.64,4.03v12.37c0,1.63-.81,2.44-2.44,2.44h-2.79c-1.63,0-2.44-.81-2.44-2.44v-10.95c0-1.06-.21-1.83-.62-2.3-.42-.47-1.05-.71-1.91-.71s-1.59.16-2.22.49-1.14.77-1.55,1.33c-.41.56-.72,1.21-.91,1.95-.19.74-.29,1.51-.29,2.3v7.89c0,1.63-.81,2.44-2.44,2.44h-2.79c-1.63,0-2.44-.81-2.44-2.44v-17.95Z"/><path class="cls-3" d="M747.98,167.39c0-.83.12-1.63.35-2.39s.58-1.49,1.02-2.15.98-1.26,1.6-1.77c.62-.52,1.31-.94,2.08-1.26v-.09c-.71-.35-1.33-.84-1.86-1.46-.47-.53-.9-1.23-1.29-2.1-.39-.87-.58-1.96-.58-3.26,0-1.54.29-2.84.88-3.92s1.37-1.97,2.35-2.66c.97-.69,2.09-1.2,3.34-1.51,1.26-.31,2.55-.47,3.88-.47h1.59c1.63,0,2.44.81,2.44,2.44v1.55c0,1.63-.81,2.44-2.44,2.44h-.93c-1.18,0-2.02.35-2.53,1.04s-.75,1.44-.75,2.24.27,1.51.82,2.13c.55.62,1.35.93,2.42.93h3.85v-1.46c0-1.63.81-2.44,2.44-2.44h2.75c1.63,0,2.44.65,2.44,1.95v1.95h1.51c1.63,0,2.44.81,2.44,2.44v1.77c0,1.63-.81,2.44-2.44,2.44h-1.51v3.06c0,1.42-.27,2.76-.8,4.01-.53,1.26-1.31,2.35-2.35,3.28s-2.3,1.66-3.79,2.19c-1.49.53-3.21.8-5.16.8-1.8,0-3.44-.25-4.9-.75-1.46-.5-2.7-1.19-3.72-2.06s-1.8-1.9-2.35-3.08c-.55-1.18-.82-2.45-.82-3.81ZM755.91,166.9c0,.86.37,1.6,1.11,2.22.74.62,1.66.93,2.75.93,1.48,0,2.59-.35,3.35-1.06.75-.71,1.13-1.58,1.13-2.61v-2.62h-4.34c-.5,0-1,.05-1.48.16s-.92.28-1.29.53c-.37.25-.66.58-.89.98-.22.4-.33.89-.33,1.48Z"/><path class="cls-3" d="M395.02,203.45h-7.18c-1.63,0-2.44-.81-2.44-2.44v-1.77c0-1.62.81-2.44,2.44-2.44h22.12c1.62,0,2.44.81,2.44,2.44v1.77c0,1.63-.81,2.44-2.44,2.44h-7.18v22.6c0,1.63-.81,2.44-2.44,2.44h-2.88c-1.63,0-2.44-.81-2.44-2.44v-22.6Z"/><path class="cls-3" d="M409.91,217.06c0-1.68.27-3.25.82-4.7.55-1.45,1.33-2.7,2.35-3.77,1.02-1.06,2.27-1.91,3.74-2.53,1.48-.62,3.13-.93,4.96-.93,1.68,0,3.18.28,4.5.84,1.32.56,2.42,1.33,3.32,2.3.9.98,1.58,2.13,2.04,3.46.46,1.33.69,2.76.69,4.3,0,.59-.24,1.16-.71,1.71-.47.55-1.1.82-1.86.82h-12.01c.3,1.4.95,2.43,1.95,3.07,1,.64,2.13.96,3.37.96.77,0,1.51-.1,2.22-.31s1.36-.46,1.95-.75c.74-.32,1.37-.43,1.91-.31.53.12.99.53,1.37,1.24l.62,1.16c.35.68.47,1.32.35,1.9s-.52,1.06-1.2,1.45c-.83.48-1.9.94-3.21,1.38-1.32.45-2.86.67-4.63.67-2.04,0-3.84-.34-5.41-1.02-1.57-.68-2.88-1.57-3.92-2.68-1.05-1.11-1.85-2.39-2.39-3.83-.55-1.45-.82-2.92-.82-4.43ZM424.76,214.18c0-.95-.28-1.75-.84-2.42-.56-.66-1.33-1-2.3-1-1.12,0-1.97.34-2.53,1.02-.56.68-.95,1.48-1.15,2.39h6.83Z"/><path class="cls-3" d="M434.2,217.06c0-1.53.28-3.02.84-4.45.56-1.43,1.38-2.71,2.46-3.81,1.08-1.11,2.41-1.99,3.99-2.66,1.58-.67,3.39-1,5.43-1,1.74,0,3.22.22,4.43.65,1.21.43,2.19.9,2.93,1.4.62.42.97.92,1.04,1.5.07.58-.1,1.2-.51,1.85l-.76,1.16c-.41.68-.88,1.06-1.42,1.13s-1.15-.07-1.86-.42c-.44-.24-.95-.44-1.51-.6-.56-.16-1.18-.24-1.86-.24-.92,0-1.71.15-2.39.46-.68.31-1.25.72-1.71,1.23-.46.51-.8,1.09-1.02,1.74-.22.65-.33,1.31-.33,1.98s.12,1.35.35,2.02c.24.67.59,1.28,1.06,1.8.47.53,1.06.96,1.77,1.3s1.55.5,2.53.5c.77,0,1.51-.13,2.22-.4.71-.27,1.34-.56,1.91-.89.74-.41,1.38-.56,1.93-.44.55.12,1.01.55,1.4,1.28l.58,1.11c.32.68.44,1.31.35,1.88s-.43,1.05-1.02,1.47c-.8.54-1.88,1.07-3.24,1.61s-2.98.8-4.88.8c-2.04,0-3.85-.33-5.43-.98-1.58-.65-2.91-1.53-3.99-2.64-1.08-1.11-1.9-2.39-2.46-3.83-.56-1.45-.84-2.95-.84-4.52Z"/><path class="cls-3" d="M458.97,199.24c0-1.62.81-2.44,2.44-2.44h2.79c1.62,0,2.44.81,2.44,2.44v7.58c0,.29,0,.56-.02.8-.02.24-.02.44-.02.62-.03.21-.04.38-.04.53h.09c.65-1.12,1.59-2.01,2.84-2.66,1.24-.65,2.61-.98,4.12-.98,1.15,0,2.23.15,3.24.44,1,.3,1.87.78,2.59,1.44.72.66,1.3,1.54,1.73,2.64s.64,2.44.64,4.03v12.37c0,1.63-.81,2.44-2.44,2.44h-2.79c-1.63,0-2.44-.81-2.44-2.44v-10.95c0-1.06-.21-1.83-.62-2.3-.41-.47-1.05-.71-1.9-.71-1.66,0-2.9.58-3.72,1.75s-1.24,2.62-1.24,4.37v7.84c0,1.63-.81,2.44-2.44,2.44h-2.79c-1.63,0-2.44-.81-2.44-2.44v-26.82Z"/><path class="cls-3" d="M486,208.1c0-1.62.81-2.44,2.44-2.44h2.48c1.59,0,2.39.81,2.39,2.44v.4c0,.06,0,.12-.02.18-.02.06-.02.12-.02.18v.22h.09c.27-.44.61-.9,1.02-1.37.41-.47.92-.89,1.51-1.26s1.28-.68,2.06-.93,1.68-.38,2.68-.38c1.15,0,2.23.15,3.24.44,1,.3,1.87.78,2.59,1.44.73.66,1.3,1.54,1.73,2.64s.64,2.44.64,4.03v12.37c0,1.63-.81,2.44-2.44,2.44h-2.79c-1.63,0-2.44-.81-2.44-2.44v-10.95c0-1.06-.21-1.83-.62-2.3-.42-.47-1.05-.71-1.91-.71s-1.59.16-2.22.49-1.14.77-1.55,1.33c-.41.56-.72,1.21-.91,1.95-.19.74-.29,1.51-.29,2.3v7.89c0,1.63-.81,2.44-2.44,2.44h-2.79c-1.63,0-2.44-.81-2.44-2.44v-17.95Z"/><path class="cls-3" d="M511.76,217.15c0-1.8.34-3.44,1.02-4.92.68-1.48,1.6-2.74,2.77-3.79,1.17-1.05,2.53-1.86,4.1-2.44,1.56-.58,3.24-.86,5.01-.86s3.49.29,5.08.86c1.58.58,2.95,1.39,4.12,2.44,1.17,1.05,2.09,2.31,2.77,3.79.68,1.48,1.02,3.12,1.02,4.92s-.34,3.39-1.02,4.85c-.68,1.46-1.6,2.72-2.77,3.77-1.17,1.05-2.53,1.85-4.1,2.42-1.57.56-3.25.84-5.05.84s-3.49-.28-5.05-.84c-1.57-.56-2.93-1.37-4.1-2.42-1.17-1.05-2.09-2.3-2.77-3.77-.68-1.46-1.02-3.08-1.02-4.85ZM519.51,217.15c0,.85.14,1.61.42,2.29.28.67.66,1.24,1.13,1.71.47.47,1.02.83,1.64,1.08s1.29.37,2,.37,1.37-.12,1.99-.37,1.17-.61,1.64-1.08c.47-.47.85-1.04,1.13-1.71.28-.67.42-1.44.42-2.29s-.14-1.62-.42-2.31c-.28-.69-.66-1.28-1.13-1.76-.47-.48-1.02-.86-1.64-1.12s-1.29-.4-1.99-.4-1.37.13-2,.4-1.17.64-1.64,1.12c-.47.48-.85,1.07-1.13,1.76-.28.69-.42,1.46-.42,2.31Z"/><path class="cls-3" d="M540.78,199.24c0-1.62.81-2.44,2.44-2.44h2.79c1.63,0,2.44.81,2.44,2.44v20.48c0,.86.13,1.43.38,1.73.25.29.56.47.91.53.53.06.96.25,1.29.58s.49.83.49,1.51v2.17c0,.77-.19,1.37-.58,1.82-.38.44-1.02.66-1.9.66-.98,0-1.96-.09-2.95-.26-.99-.18-1.88-.57-2.66-1.18-.78-.6-1.42-1.48-1.91-2.61-.49-1.14-.73-2.66-.73-4.59v-20.83Z"/><path class="cls-3" d="M553.02,217.15c0-1.8.34-3.44,1.02-4.92.68-1.48,1.6-2.74,2.77-3.79,1.17-1.05,2.53-1.86,4.1-2.44,1.56-.58,3.24-.86,5.01-.86s3.49.29,5.08.86c1.58.58,2.95,1.39,4.12,2.44,1.17,1.05,2.09,2.31,2.77,3.79.68,1.48,1.02,3.12,1.02,4.92s-.34,3.39-1.02,4.85c-.68,1.46-1.6,2.72-2.77,3.77-1.17,1.05-2.53,1.85-4.1,2.42-1.57.56-3.25.84-5.05.84s-3.49-.28-5.05-.84c-1.57-.56-2.93-1.37-4.1-2.42-1.17-1.05-2.09-2.3-2.77-3.77-.68-1.46-1.02-3.08-1.02-4.85ZM560.77,217.15c0,.85.14,1.61.42,2.29.28.67.66,1.24,1.13,1.71.47.47,1.02.83,1.64,1.08s1.29.37,2,.37,1.37-.12,1.99-.37,1.17-.61,1.64-1.08c.47-.47.85-1.04,1.13-1.71.28-.67.42-1.44.42-2.29s-.14-1.62-.42-2.31c-.28-.69-.66-1.28-1.13-1.76-.47-.48-1.02-.86-1.64-1.12s-1.29-.4-1.99-.4-1.37.13-2,.4-1.17.64-1.64,1.12c-.47.48-.85,1.07-1.13,1.76-.28.69-.42,1.46-.42,2.31Z"/><path class="cls-3" d="M584.48,232.18c.29-.77.68-1.27,1.15-1.49.47-.22,1.12-.2,1.95.07.56.18,1.16.33,1.8.44.64.12,1.4.18,2.28.18.71,0,1.39-.07,2.04-.22.65-.15,1.22-.38,1.71-.7.49-.32.88-.76,1.17-1.31.29-.56.44-1.26.44-2.11v-1.68c0-.12.01-.22.04-.31h-.09c-.62.92-1.37,1.61-2.24,2.08-.87.47-1.99.71-3.34.71-1.74,0-3.27-.32-4.59-.98-1.32-.65-2.4-1.51-3.26-2.57-.86-1.06-1.5-2.28-1.93-3.66-.43-1.37-.64-2.8-.64-4.27s.21-2.84.62-4.19c.41-1.34,1.05-2.54,1.93-3.59.87-1.05,1.97-1.88,3.28-2.51,1.31-.62,2.86-.93,4.63-.93,1.24,0,2.25.15,3.04.47.78.31,1.42.66,1.93,1.04.53.44.96.93,1.29,1.46h.09s-.05-.07-.05-.13v-.4c0-.53.21-.98.62-1.35.41-.37,1.02-.56,1.82-.56h2.08c1.63,0,2.44.81,2.44,2.44v18.3c0,2.1-.39,3.86-1.15,5.3s-1.76,2.61-2.97,3.52-2.56,1.57-4.05,1.97c-1.49.4-2.96.6-4.41.6-1.33,0-2.62-.11-3.88-.33-1.26-.22-2.22-.48-2.9-.78-1.45-.6-1.89-1.65-1.33-3.17l.49-1.34ZM593.08,221.4c.5,0,1-.07,1.48-.22.49-.15.93-.4,1.33-.77.4-.37.72-.87.95-1.52.24-.64.35-1.46.35-2.46s-.13-1.81-.38-2.44c-.25-.63-.58-1.13-.98-1.49-.4-.37-.87-.61-1.42-.75s-1.1-.2-1.66-.2c-1.36,0-2.38.43-3.06,1.27-.68.85-1.02,1.93-1.02,3.25,0,.7.09,1.38.27,2.02s.44,1.21.8,1.69.8.87,1.35,1.16c.55.29,1.2.44,1.97.44Z"/><path class="cls-3" d="M609.46,231.46c.43-.18.88-.22,1.35-.13.18.06.38.11.6.15.22.04.47.07.73.07.68,0,1.31-.24,1.88-.71.58-.47,1-1.05,1.26-1.73l.44-1.06-8.46-19.54c-.38-.86-.41-1.54-.07-2.06.34-.52.98-.78,1.93-.78h3.46c1.42,0,2.35.66,2.79,2l2.7,8.51c.09.32.19.69.29,1.11.1.41.2.8.29,1.15.12.44.21.87.27,1.29h.09l.27-1.24c.06-.35.13-.73.22-1.11.09-.39.18-.74.27-1.06l2.3-8.55c.38-1.39,1.3-2.08,2.75-2.08h3.24c.88,0,1.51.25,1.88.75.37.5.39,1.18.07,2.04l-8.33,22.47c-.47,1.27-1.06,2.34-1.77,3.22-.71.87-1.49,1.58-2.33,2.13-.84.55-1.73.94-2.66,1.17-.93.24-1.85.35-2.77.35-.59,0-1.16-.06-1.71-.18-.55-.12-1.04-.25-1.49-.4-.74-.24-1.2-.65-1.4-1.24-.19-.59-.12-1.24.2-1.95l.58-1.29c.32-.68.7-1.11,1.13-1.29Z"/><path class="cls-3" d="M644.71,199.24c0-1.62.81-2.44,2.44-2.44h2.88c1.62,0,2.44.81,2.44,2.44v22.6h10.5c1.62,0,2.44.81,2.44,2.44v1.77c0,1.63-.81,2.44-2.44,2.44h-15.82c-1.63,0-2.44-.81-2.44-2.44v-26.82Z"/><path class="cls-3" d="M666.25,222.07c0-1.53.41-2.8,1.22-3.81.81-1,1.85-1.8,3.13-2.39,1.27-.59,2.66-1,4.17-1.24,1.51-.24,2.97-.35,4.39-.35h.66v-.4c0-.95-.32-1.6-.97-1.97-.65-.37-1.4-.56-2.26-.56-.74,0-1.46.1-2.17.31-.71.21-1.36.44-1.95.71-1.51.65-2.6.3-3.28-1.06l-.53-1.11c-.33-.68-.42-1.31-.27-1.88.15-.58.56-1.04,1.24-1.4.86-.41,1.93-.81,3.24-1.19,1.3-.39,2.78-.58,4.43-.58,3.16,0,5.65.82,7.47,2.46,1.82,1.64,2.73,3.92,2.73,6.85v11.61c0,1.63-.81,2.44-2.44,2.44h-2.13c-1.63,0-2.44-.83-2.44-2.48v-.49c0-.06.01-.1.04-.13h-.09c-.44.68-.99,1.29-1.64,1.82-.56.47-1.27.9-2.13,1.26-.86.37-1.85.56-2.97.56s-2.1-.18-3.01-.53c-.92-.35-1.7-.84-2.35-1.46s-1.16-1.36-1.53-2.22-.55-1.77-.55-2.75ZM673.83,221.36c0,.53.18.99.55,1.37.37.38.91.58,1.62.58.56,0,1.08-.13,1.55-.38.47-.25.89-.57,1.24-.95.35-.39.63-.81.82-1.29.19-.47.29-.95.29-1.42v-.62h-.71c-.59,0-1.2.04-1.84.13-.63.09-1.21.24-1.73.44-.52.21-.95.48-1.29.82s-.51.78-.51,1.31Z"/><path class="cls-3" d="M691.69,199.24c0-1.62.81-2.44,2.44-2.44h2.79c1.62,0,2.44.81,2.44,2.44v6.83c0,.3,0,.56-.02.8s-.02.44-.02.62c-.03.21-.04.38-.04.53h.09c.41-.53.93-1,1.55-1.42.5-.35,1.15-.69,1.95-1,.8-.31,1.73-.47,2.79-.47,1.51,0,2.88.29,4.12.86,1.24.58,2.3,1.39,3.19,2.44.89,1.05,1.58,2.3,2.08,3.74.5,1.45.75,3.04.75,4.78,0,1.83-.27,3.49-.82,4.99-.55,1.49-1.29,2.76-2.24,3.81-.95,1.05-2.05,1.85-3.32,2.42-1.27.56-2.64.84-4.12.84-1.24,0-2.27-.16-3.08-.49-.81-.32-1.47-.69-1.97-1.11-.59-.47-1.08-1-1.46-1.59h-.09v.13c0,.06,0,.11.02.15.02.04.02.1.02.15v.18c0,.59-.21,1.08-.62,1.46-.41.38-1.02.58-1.82.58h-2.17c-1.63,0-2.44-.81-2.44-2.44v-26.82ZM699.14,216.99c0,.77.09,1.5.29,2.18s.47,1.28.84,1.8.83.93,1.37,1.24,1.17.47,1.88.47c1.27,0,2.35-.47,3.24-1.42.89-.95,1.33-2.31,1.33-4.09s-.41-3.05-1.22-4.07c-.81-1.02-1.88-1.53-3.22-1.53-.59,0-1.16.11-1.71.33-.55.22-1.03.56-1.44,1-.41.45-.75,1.01-1,1.69s-.38,1.48-.38,2.4Z"/><line class="cls-1" x1="350.53" y1="226.28" x2="350.53" y2="145.37"/><path class="cls-3" d="M152.26,293.83c-3.27,0-6.54-.7-9.5-2.18l-.55-8.96h1.99c.43,2.69.78,4.63,2.14,6.46,1.36,1.83,3.5,2.73,5.68,2.73,3.66,0,6-2.45,6-5.18,0-2.42-1.48-3.86-4.01-5.14l-5.8-2.96c-2.1-1.09-5.45-2.84-5.45-7.24,0-4.13,3.23-7.71,9.35-7.71,3,0,5.92.7,8.61,1.99l.31,8.1h-1.91c-.51-5.65-3.82-8.14-7.24-8.14-2.84,0-5.1,1.67-5.1,4.32,0,1.83.82,3.35,3.85,4.83l5.53,2.73c2.18,1.05,6.08,2.96,6.08,7.87,0,5.73-5.18,8.49-9.97,8.49Z"/><path class="cls-3" d="M182.29,293.48c-.62-.97-.66-1.21-.94-4.13-3.31,3.08-5.33,4.13-7.4,4.13-2.49,0-4.21-1.56-4.98-3.08-.66-1.32-.7-3.19-.7-4.87v-8.84c0-1.24-.08-2.8-2.14-2.8h-1.17v-1.75l6.08-.35h.93v13.79c0,1.48,0,5.34,3.47,5.34,1.95,0,3.82-1.44,5.92-3.82v-10.24c0-1.36-.04-2.96-2.18-2.96h-1.83v-1.75l6.77-.35h.94v16.55c0,1.32,0,3.04,1.87,3.04h1.6v1.75l-6.23.35Z"/><path class="cls-3" d="M213.36,263.37c3.78,0,5.88,1.75,5.88,3.62,0,1.09-.9,1.91-1.99,1.91s-1.91-.7-2.34-2.06c-.39-1.21-1.13-1.83-2.18-1.83-2.53,0-2.76,2.8-2.76,4.91v2.8h4.28v2.1h-4.28v14.37c0,2.02.47,2.18,1.67,2.18h2.61v1.75h-11.18v-1.75h1.56c1.24,0,1.67-.2,1.67-2.18v-14.37h-9.58v14.37c0,2.02.43,2.18,1.67,2.18h2.57v1.75h-11.37v-1.75h1.79c1.25,0,1.68-.2,1.68-2.18v-14.37h-3.47v-2.1h3.47v-1.36c0-5.45,3.12-7.98,8.53-7.98,2.73,0,4.83.66,6.35,2.03,1.25-1.36,3.04-2.03,5.41-2.03ZM206.31,269.14c-.62-.27-1.13-.82-1.48-1.71-.66-1.6-2.02-2.41-4.09-2.41-1.21,0-2.18.35-2.92,1.09-.74.74-1.09,2.34-1.09,4.83v1.79h9.58v-3.58Z"/><path class="cls-3" d="M226.88,293.48c-4.52,0-9.5-3.23-9.5-10.83s4.95-10.86,9.5-10.86,9.54,3.31,9.54,10.86-4.98,10.83-9.54,10.83ZM226.88,273.62c-5.14,0-5.41,6.27-5.41,9.27,0,2.8.43,8.76,5.41,8.76s5.45-6.31,5.45-9.23-.47-8.8-5.45-8.8Z"/><path class="cls-3" d="M238.64,293.13v-1.75h2.34c1.48,0,1.67-.59,1.67-2.18v-20.87c0-1.24-.04-2.69-2.18-2.69h-1.83v-1.75l6.78-.51h.93v25.82c0,1.59.2,2.18,1.68,2.18h2.3v1.75h-11.68Z"/><path class="cls-3" d="M265.2,293.13v-1.75c1.17,0,1.44,0,1.75-.08.35-.12.47-.39.47-.66,0-.39-.23-.74-.43-1.05l-4.98-7.4-3.12,3.12v3.89c0,1.59.16,2.18,1.68,2.18h1.44v1.75h-10.01v-1.75h1.52c1.52,0,1.67-.62,1.67-2.18v-20.87c0-1.01,0-2.69-2.18-2.69h-1.32v-1.75l6.27-.51h.93v19.47l6.31-6.31c.86-.86,1.21-1.32,1.21-1.75,0-.9-1.13-.9-2.06-.9h-.97v-1.75h9.7v1.75h-.66c-1.71,0-2.34.39-4.48,2.49l-3.35,3.27,6.47,9.66c.93,1.4,1.4,2.1,3.39,2.06v1.75h-9.23Z"/><path class="cls-3" d="M314.19,266.1c-4.01.04-4.01,2.88-4.01,4.48v13.79c0,1.48,0,4.05-1.99,6.31-2.38,2.69-6.08,3.15-8.41,3.15-3.5,0-7.4-1.09-9.11-4.09-1.01-1.79-1.01-3.78-1.01-5.03v-16.39c0-1.64-.16-2.22-1.64-2.22h-2.38v-1.75h12.66v1.75h-2.73c-1.48,0-1.67.55-1.67,2.22v15.73c0,2.42,0,7.63,6.66,7.63,3.94,0,7.48-2.22,7.48-6.86v-14.25c0-3.04-.85-4.48-4.44-4.48v-1.75h10.59v1.75Z"/><path class="cls-3" d="M329.23,293.13v-1.75h1.48c1.48,0,1.67-.59,1.67-2.18v-9.42c0-1.25-.08-2.3-.47-3.12-.66-1.36-1.91-2.06-3.08-2.06-2.14,0-4.05,1.56-5.68,3.5l-.2.23v10.87c0,1.59.15,2.18,1.71,2.18h1.21v1.75h-9.77v-1.75h1.52c1.52,0,1.64-.59,1.64-2.18v-12.42c0-2.03-.12-2.88-2.26-2.88h-1.21v-1.75l6.15-.35c.74,1.4,1.05,2.92,1.01,4.36,3.04-2.92,5.02-4.36,7.48-4.36,2.18,0,4.17,1.29,4.87,3.15.74,1.95.78,3.54.78,4.67v9.58c0,1.59.16,2.18,1.64,2.18h1.56v1.75h-10.05Z"/><path class="cls-3" d="M341.03,293.13v-1.75h2.22c1.48,0,1.68-.59,1.68-2.18v-12.5c0-1.44-.27-2.8-2.18-2.8h-1.71v-1.75l6.66-.35h.94v17.41c0,1.59.15,2.18,1.64,2.18h2.18v1.75h-11.41ZM346.13,268.24c-1.33,0-2.42-1.05-2.42-2.41,0-1.75,1.68-2.45,2.49-2.45,1.13,0,2.38.94,2.38,2.45,0,1.36-1.13,2.41-2.45,2.41Z"/><path class="cls-3" d="M373.93,273.89c-1.36,0-2.45.27-3.27,2.61l-5.92,16.63h-2.76l-6.43-17.06c-.55-1.48-.9-2.18-3.19-2.18v-1.75h9.62v1.75h-.97c-.66,0-1.95,0-1.95,1.09,0,.39.27,1.13.47,1.59l4.71,12.42,4.44-12.38c.08-.24.27-.86.27-1.33,0-1.4-1.75-1.4-2.84-1.4v-1.75h7.83v1.75Z"/><path class="cls-3" d="M392.67,287.56c-1.83,3.62-4.63,5.92-8.72,5.92-4.75,0-9-3.66-9-10.71,0-7.48,4.21-10.98,9.27-10.98,5.57,0,8.45,4.95,8.45,10.4v.86h-13.75c0,1.95,0,8.33,5.49,8.33,3.51,0,5.45-2.84,6.15-3.82h2.1ZM388.5,281.29c.04-.31.04-.62.04-.9.08-5.33-2.49-6.77-4.56-6.77-4.63,0-4.94,6.11-5.02,7.67h9.54Z"/><path class="cls-3" d="M410.08,278.02c-1.21,0-1.95-.94-1.95-1.83,0-.12.12-.78.12-.94,0-.74-.62-.97-.9-.97-1.52,0-4.83,3.86-5.34,4.48v10.44c0,1.59.16,2.18,1.71,2.18h2.8v1.75h-11.57v-1.75h1.68c1.48,0,1.67-.59,1.67-2.18v-12.62c0-1.17-.04-2.69-2.06-2.69h-1.29v-1.75l5.65-.35c.97,1.4,1.13,2.18,1.4,4.79,2.45-2.73,4.44-4.79,7.09-4.79,1.87,0,3.39,1.6,3.39,3.54,0,1.67-1.17,2.69-2.41,2.69Z"/><path class="cls-3" d="M422.42,293.48c-2.61,0-5.22-.43-7.52-1.6v-5.84h1.52c.51,4.56,3.86,5.61,6.31,5.61,3.54,0,4.48-2.1,4.48-3.47,0-1.75-1.48-2.61-3.89-3.31l-2.03-.59c-3.47-1.01-6.19-2.57-6.19-6.19,0-3.35,2.49-6.31,7.09-6.31,2.22,0,4.44.58,6.39,1.68l.27,5.33h-1.56c-.31-1.32-1.09-5.18-5.38-5.18-2.38,0-3.93,1.44-3.93,3.23,0,2.14,1.91,3.04,4.71,3.78l1.32.35c4.25,1.13,6.15,2.92,6.15,6.11,0,3.66-2.69,6.39-7.75,6.39Z"/><path class="cls-3" d="M432.63,293.13v-1.75h2.22c1.48,0,1.68-.59,1.68-2.18v-12.5c0-1.44-.27-2.8-2.18-2.8h-1.71v-1.75l6.66-.35h.94v17.41c0,1.59.15,2.18,1.64,2.18h2.18v1.75h-11.41ZM437.73,268.24c-1.33,0-2.42-1.05-2.42-2.41,0-1.75,1.68-2.45,2.49-2.45,1.13,0,2.38.94,2.38,2.45,0,1.36-1.13,2.41-2.45,2.41Z"/><path class="cls-3" d="M458.6,291.38c-2.57,1.91-4.48,2.1-5.34,2.1s-4.32-.12-4.32-4.79v-13.86h-3.59v-1.48c4.91-.82,5.38-4.79,5.53-8.26h1.75v7.63h5.45v2.1h-5.45v13.36c0,1.09,0,3,1.75,3,1.24,0,2.38-.66,4.21-2.03v2.22Z"/><path class="cls-3" d="M481.66,273.89c-2.26.04-2.77,1.17-3.47,3l-6.82,17.56c-1.91,4.91-4.52,5.38-6.15,5.38-2.77,0-3.97-1.68-3.97-3,0-1.09.7-2.18,2.1-2.18s2.06,1.05,2.06,1.75c0,.12-.08.59-.08.7,0,.58.39.9.78.9.74,0,2.18-.78,3.31-3.47l.86-2.03-6.89-16.36c-.94-2.22-1.71-2.26-3.23-2.26v-1.75h9.54v1.75h-1.17c-.66,0-1.64.08-1.64,1.21,0,.31.2.86.24.97l4.94,11.72,3.97-10.28c.2-.47.55-1.6.55-2.06,0-1.56-1.83-1.56-2.92-1.56v-1.75h7.98v1.75Z"/><path class="cls-3" d="M516.78,293.13h-23.64v-1.75h2.34c1.48,0,1.67-.59,1.67-2.18v-20.87c0-1.64-.19-2.22-1.67-2.22h-2.34v-1.75h13.67v1.75h-3.74c-1.48,0-1.67.55-1.67,2.22v20.95c0,1.68.47,2.1,1.87,2.1h4.91c4.36,0,6.27-2.69,7.56-9.11h1.79l-.74,10.86Z"/><path class="cls-3" d="M537.07,293.48c-2.61,0-3.74-2.61-4.17-3.62-.86.9-3.54,3.62-7.21,3.62-3.35,0-5.92-1.91-5.92-5.14,0-4.98,4.94-6.5,12.81-7.83v-2.45c0-1.68,0-4.44-3.85-4.44-3.23,0-3.27,1.32-3.31,2.65-.08,2.49-1.56,2.88-2.49,2.88-1.52,0-2.14-1.21-2.14-2.1,0-2.14,2.53-5.26,8.3-5.26,1.29,0,7.2,0,7.2,5.33v9.74c0,2.3,0,4.36,1.64,4.36.66,0,1.17-.27,1.71-.55v2.03c-.78.43-1.6.78-2.57.78ZM532.6,282.34c-6.93,1.05-8.8,2.53-8.8,5.57,0,1.71.82,3.5,3.04,3.5,1.95,0,3.97-1.71,5.76-3.43v-5.65Z"/><path class="cls-3" d="M570.26,273.89c-1.64,0-2.53.97-3,2.53l-5.02,16.71h-2.45l-4.79-14.18h-.08l-4.21,14.18h-2.65l-5.61-17.21c-.5-1.6-1.05-2.03-2.26-2.03h-.55v-1.75h8.72v1.75h-1.29c-.35,0-1.4,0-1.4.9,0,.15.04.5.15.82l4.29,13.16h.08l3.74-12.85c0-.47-.43-2.03-2.26-2.03h-.97v-1.75h9.07v1.75h-.86c-.55,0-1.67,0-1.67,1.01,0,.04.08.66.2,1.01l4.28,12.85h.08l3.43-11.76c.27-.97.31-1.29.31-1.52,0-1.52-1.52-1.56-2.41-1.6v-1.75h7.13v1.75Z"/><path class="cls-3" d="M593,293.83c-3.27,0-6.54-.7-9.5-2.18l-.55-8.96h1.99c.43,2.69.78,4.63,2.14,6.46,1.36,1.83,3.5,2.73,5.68,2.73,3.66,0,6-2.45,6-5.18,0-2.42-1.48-3.86-4.01-5.14l-5.8-2.96c-2.1-1.09-5.45-2.84-5.45-7.24,0-4.13,3.23-7.71,9.35-7.71,3,0,5.92.7,8.61,1.99l.31,8.1h-1.91c-.51-5.65-3.82-8.14-7.24-8.14-2.84,0-5.1,1.67-5.1,4.32,0,1.83.82,3.35,3.85,4.83l5.53,2.73c2.18,1.05,6.08,2.96,6.08,7.87,0,5.73-5.18,8.49-9.97,8.49Z"/><path class="cls-3" d="M623.81,286.94c-.55,1.52-2.38,6.54-8.57,6.54s-8.92-4.87-8.92-10.55c0-9.11,6.31-11.14,9.85-11.14,4.09,0,7.01,2.61,7.01,5.3,0,1.71-1.05,2.65-2.34,2.65-1.36,0-2.3-.97-2.3-2.06,0-.27.35-1.56.35-1.83,0-.85-.62-2.22-2.92-2.22-5.18,0-5.57,6.54-5.57,8.92,0,2.06.23,4.21,1.05,6,1.05,2.3,2.92,2.84,4.36,2.84,2.1,0,4.44-1.32,6-4.44h1.99Z"/><path class="cls-3" d="M638.53,293.13v-1.75h1.44c1.48,0,1.68-.59,1.68-2.18v-8.92c0-1.75.04-5.68-3.54-5.68-1.91,0-3.54,1.09-5.76,3.74v10.87c0,1.59.15,2.18,1.64,2.18h1.4v1.75h-10.01v-1.75h1.6c1.48,0,1.68-.59,1.68-2.18v-20.87c0-.97-.04-2.69-2.18-2.69h-1.48v-1.75l6.42-.51h.94v12.62c1.79-1.95,4.63-4.21,7.4-4.21,2.26,0,3.82,1.4,4.59,2.65,1.05,1.67,1.01,4.13,1.01,5.18v9.58c0,1.59.15,2.18,1.67,2.18h1.6v1.75h-10.09Z"/><path class="cls-3" d="M660.34,293.48c-4.52,0-9.5-3.23-9.5-10.83s4.95-10.86,9.5-10.86,9.54,3.31,9.54,10.86-4.98,10.83-9.54,10.83ZM660.34,273.62c-5.14,0-5.41,6.27-5.41,9.27,0,2.8.43,8.76,5.41,8.76s5.45-6.31,5.45-9.23-.47-8.8-5.45-8.8Z"/><path class="cls-3" d="M682.26,293.48c-4.52,0-9.5-3.23-9.5-10.83s4.95-10.86,9.5-10.86,9.54,3.31,9.54,10.86-4.98,10.83-9.54,10.83ZM682.26,273.62c-5.14,0-5.41,6.27-5.41,9.27,0,2.8.43,8.76,5.41,8.76s5.45-6.31,5.45-9.23-.47-8.8-5.45-8.8Z"/><path class="cls-3" d="M694.02,293.13v-1.75h2.34c1.48,0,1.67-.59,1.67-2.18v-20.87c0-1.24-.04-2.69-2.18-2.69h-1.83v-1.75l6.78-.51h.93v25.82c0,1.59.2,2.18,1.68,2.18h2.3v1.75h-11.68Z"/></svg>