<?xml version="1.0" encoding="UTF-8"?><svg id="Layer_2" xmlns="http://www.w3.org/2000/svg" viewBox="0 0 120.52 263.32"><defs><style>.cls-1{fill:#f3b120;stroke-width:0px;}</style></defs><g id="Favicons"><g id="Mac-torch"><path class="cls-1" d="M116.32,126.65h-5.64c-2.32,0-4.2-1.88-4.2-4.2v-20.61c0-3.16-1.61-6.11-4.27-7.82l-8.62-5.55c-2.44-1.57-3.92-4.28-3.92-7.19V28.07c0-3.02-1.53-5.82-4.07-7.46L55.07.94c-1.95-1.26-4.46-1.26-6.41,0l-30.32,19.53c-2.67,1.72-4.29,4.68-4.29,7.86v94.12c0,2.32-1.88,4.2-4.2,4.2h-5.64c-2.32,0-4.2,1.88-4.2,4.2h0c0,9.63,5.14,18.08,12.82,22.76.74.45,1.23,1.23,1.31,2.09.8,8.8,5.9,16.38,13.17,20.61,1.27.74,2.15,1.99,2.38,3.44l11.37,73.1c.94,6.03,6.13,10.48,12.23,10.48h13.96c6.1,0,11.3-4.45,12.23-10.48l11.37-73.1c.23-1.45,1.11-2.7,2.38-3.44,7.28-4.23,12.37-11.81,13.17-20.61.08-.86.56-1.64,1.3-2.09,7.69-4.68,12.84-13.15,12.83-22.79,0-2.31-1.89-4.17-4.2-4.17ZM89.67,100.03c0-1.77,1.96-2.83,3.44-1.88l2.4,1.55c1.59,1.03,2.56,2.79,2.56,4.69v18.06c0,2.31-1.89,4.2-4.2,4.2h-.02c-2.31,0-4.18-1.87-4.18-4.18v-22.44ZM39.29,122.49v-57.36c0-2.93,1.49-5.66,3.95-7.24l1.74-1.12c1.16-.74,2.68.09,2.68,1.46v64.24c0,2.3-1.88,4.18-4.18,4.18h-.02c-2.3,0-4.16-1.86-4.16-4.16ZM56.06,14.4c0-1.22,1.35-1.95,2.37-1.29l20.64,13.29c1.37.88,2.2,2.4,2.2,4.03v48.25c0,.8-.88,1.28-1.55.85l-3.49-2.25c-2.1-1.35-3.36-3.67-3.36-6.17v-33.69c0-3.14-1.59-6.06-4.23-7.75l-10.43-6.72c-1.34-.86-2.14-2.34-2.14-3.93v-4.62ZM56.06,34.58c0-1.3,1.44-2.09,2.53-1.38l4.14,2.66c1.08.7,1.73,1.89,1.73,3.18v28.7c0,.85-.94,1.36-1.65.9l-3.54-2.28c-2-1.29-3.21-3.51-3.21-5.89v-25.89ZM56.06,78.93c0-2.01,2.22-3.22,3.91-2.13l18.23,11.74c1.92,1.23,3.07,3.36,3.07,5.64v26.81c0,3.12-2.53,5.65-5.64,5.66h-13.92c-3.12-.01-5.64-2.54-5.64-5.66v-42.06ZM22.45,122.45V31.54c0-2.32,1.18-4.49,3.13-5.75l18.74-12.07c1.44-.93,3.34.11,3.34,1.82v26.27c0,2.02-1.02,3.89-2.72,4.98l-9.68,6.24c-2.72,1.75-4.37,4.77-4.37,8.01v61.39c0,2.32-1.9,4.22-4.22,4.22h-.02c-2.32,0-4.2-1.88-4.2-4.2ZM81.51,185.12l-10.1,64.92c-.41,2.62-2.54,4.7-5.19,4.87-3.25.2-5.95-2.37-5.95-5.58v-56.62c0-7.07,5.73-12.8,12.8-12.8,0,0,1.86,0,3.92-.03,2.8-.02,4.95,2.47,4.52,5.24ZM96.27,161.22c-2.96,6.08-9.19,10.28-16.39,10.28h-39.24c-7.2,0-13.43-4.2-16.39-10.28-.84-1.73.45-3.74,2.37-3.74h67.27s0,0,0,0c1.92,0,3.21,2.01,2.37,3.74ZM110.02,139.34c-3.06,5.78-9.14,9.73-16.12,9.73H26.63c-6.98,0-13.06-3.95-16.12-9.73-1.03-1.94.41-4.28,2.61-4.28h94.29c2.2,0,3.63,2.34,2.61,4.28Z"/></g></g></svg>