<?xml version="1.0" encoding="UTF-8"?>
<svg xmlns="http://www.w3.org/2000/svg" viewBox="0 0 5.009 6.526" fill="none" role="img" aria-label="Illinois outline">
  <path d="M1.365 0.500 L3.217 0.516 L4.202 0.516 L4.170 0.708 L4.323 0.933 L4.482 1.300 L4.476 3.660 L4.367 3.841 L4.493 4.055 L4.509 4.230 L4.383 4.372 L4.350 4.504 L4.170 4.717 L4.055 4.734 L4.082 4.860 L4.005 4.909 L3.945 5.144 L3.978 5.210 L3.846 5.353 L3.940 5.528 L3.529 5.621 L3.490 5.725 L3.584 5.856 L3.458 5.939 L3.091 5.785 L2.976 5.796 L2.822 5.971 L2.872 6.026 L2.713 6.015 L2.488 5.730 L2.570 5.665 L2.488 5.473 L2.488 5.320 L2.165 5.106 L2.055 5.128 L1.946 4.997 L1.650 4.794 L1.656 4.635 L1.825 4.378 L1.798 4.285 L1.897 4.164 L1.754 4.093 L1.535 4.049 L1.420 4.142 L1.343 4.082 L1.278 3.753 L0.944 3.540 L0.637 3.282 L0.511 2.976 L0.500 2.773 L0.588 2.631 L0.604 2.450 L0.883 2.340 L0.911 2.187 L1.042 2.088 L1.059 1.913 L0.894 1.771 L0.960 1.595 L1.349 1.546 L1.661 1.420 L1.694 1.267 L1.825 1.201 L1.864 1.009 L1.836 0.883 L1.612 0.785 L1.584 0.681 L1.365 0.500 Z" fill="none" stroke="#002e60" stroke-width="1.8" stroke-linecap="round" stroke-linejoin="round" vector-effect="non-scaling-stroke"/>
</svg>
